<?xml version="1.0" standalone="no"?>
<!DOCTYPE svg PUBLIC "-//W3C//DTD SVG 20010904//EN"
 "http://www.w3.org/TR/2001/REC-SVG-20010904/DTD/svg10.dtd">
<svg version="1.0" xmlns="http://www.w3.org/2000/svg"
 width="700.000000pt" height="700.000000pt" viewBox="0 0 700.000000 700.000000"
 preserveAspectRatio="xMidYMid meet">
<metadata>
Created by potrace 1.14, written by Peter Selinger 2001-2017
</metadata>
<g transform="translate(0.000000,700.000000) scale(0.100000,-0.100000)"
fill="#000000" stroke="none">
<path d="M3452 6717 c-40 -23 -54 -55 -57 -128 -1 -38 -3 -71 -6 -73 -2 -2
-29 -7 -59 -10 -154 -18 -357 -99 -476 -189 -118 -90 -222 -211 -285 -333 -44
-84 -44 -123 0 -167 24 -24 36 -28 97 -30 l69 -3 3 -352 2 -352 -42 -1 c-24
-1 -57 0 -75 1 -17 1 -45 -6 -62 -14 -55 -29 -58 -47 -59 -311 -1 -327 2 -297
-24 -295 -61 5 -89 -1 -118 -27 -31 -29 -35 -44 -45 -158 -7 -90 -13 -156 -25
-280 -5 -55 -12 -136 -15 -180 -3 -44 -8 -96 -10 -115 -4 -35 -9 -91 -30 -330
-3 -41 -8 -95 -11 -120 -2 -25 -6 -74 -9 -110 -3 -36 -8 -85 -10 -110 -2 -25
-7 -74 -10 -110 -3 -36 -8 -90 -10 -120 -3 -30 -7 -77 -10 -105 -2 -27 -7 -75
-10 -105 -3 -30 -7 -84 -10 -120 -5 -70 -13 -158 -20 -230 -3 -25 -7 -77 -10
-115 -3 -39 -7 -79 -9 -90 -2 -11 -7 -67 -11 -125 -4 -58 -9 -114 -11 -125 -2
-11 -6 -60 -10 -110 -3 -49 -7 -101 -9 -114 -2 -13 -7 -65 -11 -115 -10 -136
-5 -126 -61 -131 -62 -5 -116 -24 -166 -61 -84 -61 -89 -74 -218 -501 l-63
-212 -48 26 c-50 27 -164 134 -173 162 -6 19 -50 48 -80 52 -39 6 -74 -12
-106 -53 -52 -69 -137 -144 -198 -176 -241 -128 -529 -76 -705 128 -87 102
-85 100 -133 100 -89 0 -132 -88 -82 -170 32 -52 156 -172 219 -211 145 -92
282 -130 445 -124 117 4 145 9 236 40 89 30 180 82 253 143 l58 50 68 -57 c75
-63 177 -117 285 -151 107 -34 281 -37 401 -6 132 35 250 98 336 180 l37 35
33 -31 c90 -85 241 -162 378 -193 92 -21 272 -14 368 14 122 36 272 122 334
193 17 19 17 19 36 0 90 -90 221 -163 356 -198 77 -19 110 -23 211 -19 133 4
204 19 310 68 67 31 183 110 216 148 15 17 17 17 45 -8 234 -204 520 -264 798
-167 86 30 190 91 258 151 l50 45 37 -34 c19 -18 38 -36 41 -39 29 -31 166
-104 244 -129 120 -39 297 -47 415 -20 175 40 367 167 461 305 37 54 42 81 23
126 -8 22 -16 39 -17 39 0 0 -19 6 -40 14 -55 19 -86 6 -138 -57 -66 -80 -90
-102 -158 -146 -83 -54 -174 -82 -281 -86 -193 -9 -358 69 -485 229 -43 55
-80 75 -124 68 -29 -4 -38 -12 -119 -111 -19 -23 -66 -63 -104 -88 -55 -37
-71 -43 -78 -32 -5 8 -9 18 -9 23 0 22 -164 544 -181 578 -42 83 -143 150
-243 162 -27 3 -51 8 -54 11 -8 7 -10 26 -27 245 -3 30 -7 80 -10 110 -2 30
-7 84 -10 120 -3 36 -7 81 -10 100 -2 19 -7 71 -10 115 -4 44 -8 96 -10 115
-2 19 -6 71 -10 115 -3 44 -8 98 -11 120 -2 22 -6 69 -9 105 -3 36 -7 85 -10
110 -2 25 -7 79 -10 120 -4 41 -8 86 -10 100 -2 14 -7 64 -10 112 -3 47 -7 95
-9 105 -2 10 -7 61 -10 113 -4 52 -9 111 -11 130 -4 33 -7 66 -20 235 -3 39
-8 84 -10 100 -2 17 -6 66 -10 110 -3 44 -8 98 -10 120 -7 61 -13 131 -20 220
-4 44 -8 91 -10 105 -2 14 -6 63 -10 110 -8 125 -14 147 -47 175 -27 23 -58
30 -115 25 -13 -1 -23 2 -24 7 0 4 -1 123 -1 263 0 186 -4 264 -13 287 -14 34
-63 65 -98 63 -12 -1 -46 -2 -74 -1 l-53 1 0 353 0 353 43 1 c87 1 97 4 127
31 46 42 47 78 2 165 -117 226 -325 399 -576 481 -76 25 -106 32 -191 42 -27
3 -52 8 -54 10 -3 3 -6 34 -6 69 -1 36 -8 76 -15 91 -26 48 -91 67 -138 41z"/>
<path d="M387 6526 c-57 -39 -65 -117 -17 -161 11 -10 56 -30 102 -45 46 -16
263 -90 483 -165 220 -75 409 -139 420 -142 11 -2 29 -9 40 -13 11 -5 115 -41
230 -80 116 -39 249 -84 296 -100 101 -35 114 -36 156 -10 53 32 64 113 20
157 -23 23 -29 26 -862 308 -264 89 -548 186 -632 215 -84 28 -164 53 -178 55
-14 1 -40 -7 -58 -19z"/>
<path d="M6420 6505 c-69 -24 -264 -91 -435 -149 -760 -258 -1042 -355 -1065
-364 -82 -32 -89 -146 -10 -187 16 -8 36 -15 45 -15 14 0 325 101 370 120 11
5 81 29 155 54 147 49 1016 344 1093 371 59 21 87 55 87 107 0 30 -7 46 -29
69 -16 16 -35 29 -43 30 -7 0 -20 2 -28 3 -8 2 -71 -16 -140 -39z"/>
<path d="M1835 5050 c-197 -68 -985 -336 -1190 -405 -77 -26 -149 -50 -160
-55 -11 -5 -37 -14 -59 -20 -74 -23 -106 -88 -74 -152 25 -52 78 -68 145 -45
221 73 802 270 818 277 11 5 103 36 205 70 419 141 563 192 585 206 28 19 49
75 40 106 -4 13 -19 35 -33 51 -38 40 -80 35 -277 -33z"/>
<path d="M4887 5083 c-31 -33 -40 -72 -26 -113 14 -38 36 -52 160 -94 728
-247 950 -323 1039 -352 58 -19 114 -39 125 -44 51 -22 357 -120 376 -120 30
0 76 29 88 57 23 50 12 98 -31 131 -13 11 -386 140 -868 302 -47 16 -238 81
-424 144 -188 64 -356 116 -376 116 -27 0 -43 -7 -63 -27z"/>
</g>
</svg>
